PathFileType	4	(x/y/z)	A01_SLOW_T0027.trc
DataRate	CameraRate	NumFrames	NumMarkers	Units	OrigDataRate	OrigDataStartFrame	OrigNumFrames
240	240	11	48	mm	240	171	340
Frame#	Time	TOP_HEAD			R_AC			L_AC			R_ASIS			L_ASIS			R_PSIS			L_PSIS			SACRAL			L_IC			R_IC			L_GT			R_GT			R_LAT_KNEE			R_MED_KNEE			L_MED_KNEE			L_LAT_KNEE			R_TOE			L_TOE			R_1ST_MET			L_1ST_MET			L_5TH_MET			R_5TH_MET			R_LAT_ANK			R_MED_ANK			L_MED_ANK			L_LAT_ANK			L_HEEL_SUP			R_HEEL_SUP			L_HEEL_LAT			R_HEEL_LAT			L_HEEL_MED			R_HEEL_MED			R_LL_PROX_POST			R_LL_PROX_ANT			R_LL_DIST_ANT			R_LL_DIST_POST			R_THIGH_PROX_POST			R_THIGH_PROX_ANT			R_THIGH_DIST_ANT			R_THIGH_DIST_POST			L_PROS_PROX_ANT			L_PROS_PROX_POST			L_PROS_DIST_POST			L_PROS_DIST_ANT			L_THIGH_PROX_ANT			L_THIGH_PROX_POST			L_THIGH_DIST_POST			L_THIGH_DIST_ANT			
		X1	Y1	Z1	X2	Y2	Z2	X3	Y3	Z3	X4	Y4	Z4	X5	Y5	Z5	X6	Y6	Z6	X7	Y7	Z7	X8	Y8	Z8	X9	Y9	Z9	X10	Y10	Z10	X11	Y11	Z11	X12	Y12	Z12	X13	Y13	Z13	X14	Y14	Z14	X15	Y15	Z15	X16	Y16	Z16	X17	Y17	Z17	X18	Y18	Z18	X19	Y19	Z19	X20	Y20	Z20	X21	Y21	Z21	X22	Y22	Z22	X23	Y23	Z23	X24	Y24	Z24	X25	Y25	Z25	X26	Y26	Z26	X27	Y27	Z27	X28	Y28	Z28	X29	Y29	Z29	X30	Y30	Z30	X31	Y31	Z31	X32	Y32	Z32	X33	Y33	Z33	X34	Y34	Z34	X35	Y35	Z35	X36	Y36	Z36	X37	Y37	Z37	X38	Y38	Z38	X39	Y39	Z39	X40	Y40	Z40	X41	Y41	Z41	X42	Y42	Z42	X43	Y43	Z43	X44	Y44	Z44	X45	Y45	Z45	X46	Y46	Z46	X47	Y47	Z47	X48	Y48	Z48	

171	0.71042	123.74	1730.3	299.33	-114.44	1532.3	533.01	-113.28	1540	78.368	-111.52	1067.8	505.27	-131.68	1002.1	152.86	-335.36	1065.6	397.08	-332.46	1078	264.8	-352.43	1043.5	329.59	-150.15	1134.1	115.99	-146.02	1165.4	517.66	-212.37	933.48	117.94	-160.46	955.59	551.52	-43.809	565.59	492.17	-26.585	568.18	358.31	-295.3	542.2	344.82	-315.66	556.56	188.42	327.72	218.33	418.98	-315.14	72.85	238.81	274.17	153.95	372.3	-397.28	57.221	296.42	-430.87	51.374	171.04	252.73	132.56	503.24	121.44	123.79	476.72	122.95	131.44	375.49	-496.48	151.93	286.37	-531.49	154.15	218.43	-631.22	117.62	260.38	54.5	41.37	419.21	-627.63	87.142	228.82	73.927	25.811	454.56	-616.01	85.705	292.56	80.499	23.589	395.35	-66.143	364.18	499.21	3.3767	384.1	519.75	34.012	315.98	505.25	-16.898	296.41	493.08	-157.67	805.96	534.23	-95.678	843.98	538.78	-67.263	758.14	528.39	-126.13	722.59	520.62	-303.32	462.7	200.16	-354.76	483.1	190.42	-383.48	427.51	199.23	-331.09	414.37	207.11	-188.82	781.23	158.04	-254.91	804.41	142.67	-263.52	729.42	156.97	-203.09	709.46	170.91
172	0.7146	129.13	1729.4	300.37	-108.41	1531	534.17	-108.19	1539.3	79.542	-105.66	1066.9	505.72	-126.93	1001.4	153.18	-329.99	1064.7	398.14	-327.41	1077.4	265.88	-347.16	1042.8	330.64	-145.4	1133.5	116.62	-140.17	1164.2	518.46	-207.79	932.98	118.33	-154.34	954.67	551.9	-37.513	565.06	492.23	-21.032	567.45	358.49	-291.44	541.71	344.89	-311.67	556.22	188.52	331.8	214.6	416.35	-314.69	72.497	238.74	277.14	150.7	370.37	-396.89	57.387	296.4	-430.51	51.705	170.99	256.48	130.09	501.53	125.13	122.65	476.24	125.81	129.94	374.88	-495.35	152.83	286.37	-530.3	155.33	218.42	-630.38	119.44	260.32	56.471	41.328	419.39	-627.01	88.933	228.76	76.008	25.689	454.66	-615.38	87.441	292.5	82.011	23.114	395.39	-60.649	363.95	499.97	9.248	383.51	519.7	39.307	315.17	504.98	-11.842	295.86	493.46	-151.43	805.32	534.56	-89.445	843.44	538.88	-60.942	757.64	528.47	-119.79	721.99	520.91	-299.99	462.28	200.25	-351.29	483.04	190.49	-380.41	427.63	199.3	-328.11	414.14	207.16	-184.53	780.65	158.31	-250.58	803.97	142.97	-259.38	728.97	157.24	-198.93	708.9	171.11
173	0.71878	134.55	1728.5	301.39	-102.38	1529.8	535.34	-103.11	1538.7	80.714	-99.803	1066.1	506.2	-122.11	1000.7	153.54	-324.59	1063.9	399.19	-322.32	1076.7	266.93	-341.87	1042	331.69	-140.6	1133	117.27	-134.3	1163	519.28	-203.14	932.48	118.74	-148.21	953.8	552.3	-31.25	564.6	492.3	-15.505	566.78	358.67	-287.45	541.23	344.98	-307.54	555.89	188.64	335.77	210.59	413.85	-314.21	72.128	238.67	279.93	147.24	368.54	-396.46	57.569	296.37	-430.13	52.067	170.94	259.97	127.47	499.9	128.58	121.51	475.78	128.49	128.45	374.3	-494.16	153.8	286.37	-529.04	156.58	218.42	-629.47	121.37	260.27	58.143	41.387	419.57	-626.34	90.834	228.71	77.756	25.646	454.75	-614.69	89.282	292.46	83.208	22.72	395.43	-55.236	363.8	500.72	15.027	382.96	519.64	44.484	314.41	504.7	-6.9038	295.37	493.84	-145.21	804.74	534.9	-83.227	842.96	539	-54.639	757.19	528.56	-113.47	721.44	521.2	-296.54	461.86	200.36	-347.69	482.99	190.58	-377.22	427.78	199.39	-325.01	413.93	207.24	-180.16	780.09	158.62	-246.18	803.53	143.29	-255.13	728.53	157.52	-194.67	708.35	171.34
174	0.72296	139.99	1727.7	302.41	-96.336	1528.5	536.53	-98.04	1538.1	81.881	-93.938	1065.3	506.7	-117.24	1000.1	153.92	-319.18	1063.1	400.22	-317.2	1076	267.97	-336.55	1041.2	332.72	-135.75	1132.4	117.95	-128.4	1161.8	520.12	-198.42	931.99	119.18	-142.08	952.99	552.74	-25.029	564.21	492.37	-10.024	566.16	358.84	-283.31	540.74	345.08	-303.28	555.56	188.79	339.65	206.34	411.5	-313.71	71.743	238.6	282.59	143.63	366.83	-396.01	57.768	296.35	-429.72	52.462	170.89	263.21	124.71	498.38	131.81	120.39	475.36	131	126.99	373.76	-492.89	154.82	286.39	-527.7	157.91	218.43	-628.48	123.42	260.23	59.563	41.549	419.74	-625.61	92.855	228.67	79.215	25.682	454.84	-613.96	91.237	292.43	84.143	22.415	395.48	-49.906	363.75	501.43	20.708	382.48	519.56	49.544	313.71	504.41	-2.0785	294.97	494.18	-139.01	804.21	535.25	-77.035	842.52	539.14	-48.369	756.77	528.68	-107.19	720.94	521.51	-292.97	461.45	200.48	-343.97	482.97	190.68	-373.91	427.96	199.49	-321.81	413.74	207.33	-175.7	779.56	158.94	-241.69	803.1	143.62	-250.78	728.09	157.82	-190.32	707.82	171.58
175	0.72714	145.48	1726.9	303.41	-90.287	1527.2	537.72	-92.979	1537.4	83.041	-88.08	1064.6	507.21	-112.32	999.45	154.33	-313.76	1062.3	401.24	-312.05	1075.3	268.98	-331.2	1040.5	333.74	-130.84	1131.9	118.64	-122.48	1160.6	520.99	-193.63	931.5	119.64	-135.96	952.26	553.2	-18.861	563.9	492.45	-4.6053	565.63	359	-279.03	540.26	345.2	-298.87	555.24	188.95	343.43	201.9	409.34	-313.18	71.339	238.53	285.11	139.91	365.25	-395.52	57.985	296.33	-429.28	52.895	170.85	266.22	121.86	496.98	134.84	119.31	474.98	133.38	125.59	373.25	-491.55	155.92	286.42	-526.28	159.32	218.45	-627.42	125.59	260.21	60.772	41.81	419.91	-624.82	95.002	228.65	80.428	25.794	454.92	-613.16	93.313	292.41	84.862	22.204	395.54	-44.659	363.79	502.11	26.283	382.08	519.49	54.485	313.07	504.13	2.6358	294.64	494.51	-132.84	803.77	535.6	-70.879	842.15	539.3	-42.146	756.42	528.81	-100.95	720.52	521.82	-289.28	461.06	200.63	-340.11	482.97	190.8	-370.47	428.18	199.61	-318.48	413.58	207.43	-171.16	779.04	159.29	-237.12	802.67	143.98	-246.33	727.66	158.14	-185.86	707.31	171.85
176	0.73132	151.01	1726.1	304.4	-84.235	1526	538.93	-87.925	1536.8	84.191	-82.235	1063.9	507.74	-107.34	998.87	154.77	-308.34	1061.6	402.24	-306.87	1074.6	269.97	-325.84	1039.8	334.74	-125.87	1131.3	119.35	-116.54	1159.5	521.89	-188.77	931.04	120.13	-129.86	951.61	553.69	-12.751	563.69	492.55	0.74121	565.19	359.14	-274.6	539.78	345.35	-294.3	554.94	189.14	347.13	197.33	407.39	-312.62	70.916	238.45	287.53	136.12	363.84	-395	58.221	296.32	-428.82	53.369	170.81	269.01	118.94	495.71	137.68	118.26	474.64	135.63	124.27	372.8	-490.12	157.08	286.47	-524.76	160.81	218.5	-626.26	127.9	260.21	61.809	42.165	420.06	-623.95	97.284	228.65	81.434	25.978	454.99	-612.3	95.517	292.42	85.411	22.09	395.6	-39.499	363.92	502.74	31.744	381.75	519.41	59.308	312.52	503.85	7.2391	294.41	494.8	-126.71	803.4	535.97	-64.771	841.85	539.49	-35.982	756.12	528.97	-94.78	720.17	522.15	-285.45	460.69	200.79	-336.12	483	190.95	-366.91	428.43	199.75	-315.03	413.44	207.56	-166.53	778.56	159.67	-232.47	802.26	144.37	-241.77	727.24	158.48	-181.3	706.83	172.15
177	0.7355	156.58	1725.4	305.38	-78.185	1524.9	540.15	-82.874	1536.3	85.33	-76.413	1063.4	508.28	-102.32	998.33	155.23	-302.91	1061	403.22	-301.66	1073.9	270.92	-320.46	1039.1	335.72	-120.86	1130.8	120.08	-110.58	1158.5	522.81	-183.85	930.59	120.64	-123.78	951.07	554.2	-6.7011	563.56	492.66	6.0113	564.86	359.28	-269.99	539.3	345.52	-289.58	554.65	189.35	350.72	192.67	405.67	-312.04	70.472	238.37	289.84	132.32	362.59	-394.44	58.478	296.31	-428.33	53.888	170.77	271.6	115.98	494.59	140.36	117.27	474.36	137.79	123.03	372.41	-488.61	158.32	286.53	-523.14	162.4	218.56	-625.01	130.34	260.23	62.707	42.605	420.21	-623.01	99.71	228.68	82.27	26.225	455.06	-611.35	97.856	292.45	85.826	22.073	395.66	-34.428	364.15	503.32	37.084	381.49	519.34	64.008	312.04	503.6	11.73	294.27	495.06	-120.64	803.14	536.34	-58.721	841.63	539.7	-29.887	755.9	529.15	-88.676	719.92	522.49	-281.48	460.34	200.98	-331.97	483.06	191.12	-363.21	428.73	199.91	-311.45	413.33	207.71	-161.81	778.11	160.08	-227.73	801.87	144.78	-237.11	726.83	158.84	-176.63	706.38	172.48
178	0.73968	162.2	1724.6	306.35	-72.139	1523.7	541.37	-77.822	1535.8	86.455	-70.622	1063	508.83	-97.245	997.84	155.73	-297.49	1060.4	404.17	-296.43	1073.3	271.83	-315.07	1038.5	336.68	-115.79	1130.2	120.83	-104.61	1157.5	523.75	-178.87	930.16	121.18	-117.75	950.65	554.75	-0.71224	563.53	492.8	11.207	564.64	359.41	-265.22	538.83	345.71	-284.69	554.38	189.59	354.21	187.98	404.2	-311.43	70.007	238.3	292.06	128.54	361.51	-393.85	58.756	296.31	-427.81	54.457	170.74	274.01	113	493.63	142.87	116.33	474.14	139.86	121.89	372.08	-487	159.65	286.61	-521.42	164.09	218.65	-623.65	132.93	260.28	63.498	43.121	420.36	-621.99	102.29	228.73	82.966	26.527	455.12	-610.32	100.34	292.5	86.143	22.148	395.73	-29.448	364.47	503.85	42.295	381.32	519.29	68.583	311.65	503.38	16.103	294.23	495.29	-114.62	802.97	536.74	-52.738	841.5	539.95	-23.87	755.77	529.36	-82.646	719.76	522.84	-277.36	460.01	201.18	-327.68	483.15	191.31	-359.37	429.06	200.09	-307.73	413.25	207.87	-157	777.7	160.51	-222.91	801.5	145.22	-232.33	726.44	159.22	-171.84	705.96	172.83
179	0.74385	167.87	1723.9	307.3	-66.1	1522.7	542.59	-72.766	1535.3	87.564	-64.869	1062.7	509.38	-92.129	997.4	156.25	-292.07	1060	405.1	-291.17	1072.7	272.71	-309.68	1038	337.62	-110.68	1129.7	121.59	-98.625	1156.6	524.72	-173.83	929.77	121.74	-111.76	950.35	555.32	5.2175	563.6	492.98	16.338	564.56	359.55	-260.26	538.37	345.92	-279.62	554.13	189.84	357.57	183.29	402.98	-310.79	69.521	238.22	294.18	124.82	360.63	-393.21	59.057	296.32	-427.26	55.079	170.72	276.24	110.01	492.84	145.22	115.44	473.98	141.85	120.85	371.82	-485.29	161.06	286.72	-519.59	165.88	218.77	-622.18	135.67	260.37	64.204	43.703	420.5	-620.87	105.02	228.82	83.549	26.876	455.18	-609.2	102.97	292.6	86.389	22.313	395.8	-24.566	364.89	504.32	47.37	381.21	519.26	73.028	311.34	503.2	20.354	294.28	495.5	-108.66	802.91	537.15	-46.83	841.47	540.23	-17.938	755.73	529.6	-76.693	719.71	523.22	-273.1	459.71	201.4	-323.22	483.27	191.52	-355.37	429.44	200.3	-303.87	413.21	208.05	-152.09	777.33	160.99	-218	801.15	145.7	-227.43	726.08	159.63	-166.94	705.58	173.22
180	0.74803	173.59	1723.3	308.25	-60.07	1521.6	543.82	-67.702	1534.9	88.656	-59.162	1062.5	509.93	-86.973	997.02	156.81	-286.65	1059.7	405.99	-285.89	1072.1	273.54	-304.28	1037.5	338.53	-105.53	1129.3	122.37	-92.638	1155.7	525.7	-168.72	929.41	122.33	-105.82	950.2	555.92	11.091	563.77	493.18	21.419	564.61	359.7	-255.1	537.91	346.14	-274.38	553.89	190.12	360.81	178.65	402.02	-310.12	69.013	238.14	296.22	121.19	359.92	-392.52	59.383	296.34	-426.68	55.759	170.71	278.3	107.04	492.22	147.43	114.6	473.9	143.77	119.92	371.65	-483.47	162.57	286.85	-517.65	167.77	218.92	-620.58	138.57	260.5	64.849	44.34	420.64	-619.65	107.92	228.95	84.043	27.264	455.24	-607.98	105.75	292.73	86.589	22.559	395.87	-19.785	365.39	504.74	52.302	381.18	519.27	77.338	311.1	503.08	24.475	294.43	495.69	-102.78	802.97	537.57	-41.003	841.54	540.55	-12.093	755.79	529.87	-70.817	719.76	523.61	-268.68	459.44	201.64	-318.6	483.43	191.76	-351.22	429.87	200.52	-299.86	413.2	208.26	-147.08	777.02	161.49	-212.99	800.83	146.2	-222.42	725.74	160.07	-161.91	705.25	173.64
181	0.75221	179.36	1722.7	309.18	-54.052	1520.7	545.04	-62.624	1534.6	89.73	-53.506	1062.4	510.47	-81.779	996.71	157.39	-281.25	1059.5	406.84	-280.59	1071.6	274.33	-298.89	1037.1	339.4	-100.34	1128.8	123.16	-86.656	1155	526.71	-163.56	929.09	122.93	-99.947	950.2	556.54	16.913	564.03	493.42	26.47	564.8	359.87	-249.75	537.45	346.39	-268.96	553.68	190.41	363.9	174.09	401.32	-309.42	68.484	238.07	298.16	117.67	359.4	-391.79	59.734	296.37	-426.07	56.498	170.72	280.21	104.1	491.76	149.5	113.8	473.87	145.63	119.1	371.55	-481.55	164.18	287.01	-515.6	169.77	219.1	-618.85	141.63	260.68	65.449	45.022	420.78	-618.33	110.99	229.13	84.467	27.682	455.29	-606.64	108.69	292.91	86.76	22.879	395.96	-15.11	365.98	505.12	57.087	381.21	519.32	81.507	310.93	503.02	28.46	294.65	495.87	-96.962	803.13	538.02	-35.264	841.72	540.91	-6.3377	755.96	530.18	-65.016	719.93	524.02	-264.09	459.18	201.89	-313.81	483.63	192.01	-346.91	430.34	200.77	-295.7	413.23	208.47	-141.96	776.75	162.03	-207.89	800.54	146.73	-217.28	725.43	160.54	-156.76	704.96	174.09
